<?xml version="1.0" encoding="UTF-8" standalone="no"?>
<!-- Generator: Adobe Illustrator 26.5.0, SVG Export Plug-In . SVG Version: 6.00 Build 0)  -->

<svg
   version="1.1"
   id="Calque_1"
   x="0px"
   y="0px"
   viewBox="0 0 137.7 48"
   style="enable-background:new 0 0 137.7 48;"
   xml:space="preserve"
   sodipodi:docname="welri-logo1.svg"
   height="48px"
   width="137.7px"
   inkscape:version="1.2.1 (9c6d41e410, 2022-07-14)"
   xmlns:inkscape="http://www.inkscape.org/namespaces/inkscape"
   xmlns:sodipodi="http://sodipodi.sourceforge.net/DTD/sodipodi-0.dtd"
   xmlns="http://www.w3.org/2000/svg"
   xmlns:svg="http://www.w3.org/2000/svg"><defs
   id="defs325" /><sodipodi:namedview
   id="namedview323"
   pagecolor="#ffffff"
   bordercolor="#666666"
   borderopacity="1.0"
   inkscape:showpageshadow="2"
   inkscape:pageopacity="0.0"
   inkscape:pagecheckerboard="0"
   inkscape:deskcolor="#d1d1d1"
   showgrid="false"
   inkscape:zoom="10.137981"
   inkscape:cx="68.849998"
   inkscape:cy="24.018588"
   inkscape:window-width="2560"
   inkscape:window-height="1372"
   inkscape:window-x="-8"
   inkscape:window-y="-8"
   inkscape:window-maximized="1"
   inkscape:current-layer="Calque_1" />
<style
   type="text/css"
   id="style262">
	.st0{fill:#0089B4;}
	.st1{fill:#82ACD8;}
	.st2{fill:#6EB9D2;}
	.st3{fill:#FFFFFF;}
</style>
<g
   id="g320">
	<path
   class="st0"
   d="M92.9,18.2c-0.2,0.1-0.5,0.1-0.7,0.1c-0.5,0-1-0.3-1.3-0.8c-0.1-0.1-0.2-0.3-0.3-0.6l0-0.1c0,0,0,0,0,0l0,0   c0,0,0-0.1,0-0.1c0,0,0-0.1,0-0.1l-0.2-0.3c-0.1-0.2-0.2-0.4-0.4-0.5c-0.1-0.2-0.3-0.2-0.5-0.2h-0.7l-0.4,2.8h-1.6l1.1-8.3h3.3   c0.8,0,1.4,0.3,1.8,0.8c0.4,0.5,0.6,1.2,0.5,1.9c-0.1,1-0.7,1.7-1.6,2.3l-0.1,0c0,0-0.1,0-0.1,0c-0.1,0-0.1,0.1-0.2,0.1   c0.1,0.1,0.2,0.3,0.3,0.5c0,0.1,0.1,0.2,0.1,0.3c0,0.1,0.1,0.2,0.1,0.3c0.1,0.2,0.2,0.4,0.3,0.4c0.1,0.1,0.2,0.1,0.4,0.1   c0.1,0,0.2,0,0.3,0L92.9,18.2z M89,14h1.4c0.4,0,0.7-0.1,1-0.4c0.3-0.2,0.4-0.5,0.5-0.9c0-0.3,0-0.6-0.2-0.9   c-0.2-0.3-0.5-0.4-0.8-0.4h-1.5L89,14z"
   id="path264" />
	<path
   class="st0"
   d="M94.8,17.5c-0.5-0.5-0.7-1.2-0.6-2l0.1-0.5c0.1-0.8,0.5-1.5,1-2c0.6-0.6,1.3-0.8,2.2-0.8   c0.7,0,1.3,0.2,1.7,0.5c0.4,0.4,0.6,0.9,0.5,1.5c-0.1,0.5-0.3,0.8-0.7,1.1c-0.4,0.3-1,0.5-1.6,0.5h-1.7c0,0.4,0,0.6,0.3,0.8   c0.2,0.2,0.4,0.3,0.8,0.3c0.1,0,0.1,0,0.2,0c0.4,0,0.8-0.1,1.2-0.3c0.4-0.2,0.7-0.4,1-0.6L99,17.3c0,0.1,0,0.2-0.1,0.3   c-0.3,0.2-0.6,0.3-1,0.4c-0.5,0.1-0.9,0.2-1.4,0.2C95.9,18.3,95.2,18,94.8,17.5z M96,14.7h1.5c0.5,0,0.8-0.2,0.9-0.6   c0.1-0.4-0.2-0.6-0.8-0.6c-0.4,0-0.7,0.1-1,0.3C96.2,14,96,14.2,96,14.6L96,14.7z"
   id="path266" />
	<path
   class="st0"
   d="M100.9,16.2c0.4,0.2,0.7,0.4,1,0.6c0.3,0.1,0.7,0.2,1,0.3c0.1,0,0.1,0,0.2,0c0.4,0,0.6-0.1,0.7-0.4   c0,0,0-0.1,0-0.1c0-0.2-0.1-0.4-0.5-0.5l-0.7-0.2c-0.3-0.1-0.5-0.1-0.6-0.2c-0.4-0.2-0.8-0.4-0.9-0.8c-0.1-0.2-0.2-0.5-0.1-0.9   c0-0.1,0.1-0.3,0.1-0.4c0.2-0.5,0.5-0.8,0.9-1c0.4-0.2,0.9-0.3,1.5-0.3c0.4,0,0.8,0.1,1.2,0.2c0.3,0.1,0.7,0.2,1,0.4l-0.4,1.5   c-0.6-0.5-1.2-0.7-1.7-0.8c-0.1,0-0.2,0-0.3,0c-0.1,0-0.2,0-0.3,0c-0.2,0.1-0.3,0.2-0.4,0.3c0,0.1-0.1,0.1-0.1,0.2   c0,0.2,0.1,0.4,0.5,0.5c0.2,0.1,0.4,0.1,0.7,0.2l0.7,0.2c0.7,0.2,1,0.7,0.9,1.5c0,0.1,0,0.1,0,0.2c-0.1,0.6-0.4,1-0.9,1.3   c-0.4,0.2-0.9,0.4-1.6,0.4h0c-0.3,0-0.6,0-0.9-0.1c-0.3-0.1-0.5-0.1-0.7-0.2c-0.2-0.1-0.3-0.1-0.5-0.2c-0.1-0.1-0.2-0.1-0.2-0.1   L100.9,16.2z"
   id="path268" />
	<path
   class="st0"
   d="M107,17.5c-0.5-0.5-0.7-1.2-0.6-2l0.1-0.5c0.1-0.8,0.5-1.5,1-2c0.6-0.6,1.3-0.8,2.2-0.8c0.7,0,1.3,0.2,1.7,0.5   c0.4,0.4,0.6,0.9,0.5,1.5c-0.1,0.5-0.3,0.8-0.7,1.1c-0.4,0.3-1,0.5-1.6,0.5H108c0,0.4,0,0.6,0.3,0.8c0.2,0.2,0.4,0.3,0.8,0.3   c0.1,0,0.1,0,0.2,0c0.4,0,0.8-0.1,1.2-0.3c0.4-0.2,0.7-0.4,1-0.6l-0.2,1.2c0,0.1,0,0.2-0.1,0.3c-0.3,0.2-0.6,0.3-1,0.4   c-0.5,0.1-0.9,0.2-1.4,0.2C108.1,18.3,107.5,18,107,17.5z M108.2,14.7h1.5c0.5,0,0.8-0.2,0.9-0.6c0.1-0.4-0.2-0.6-0.8-0.6   c-0.4,0-0.7,0.1-1,0.3c-0.3,0.2-0.5,0.5-0.5,0.8L108.2,14.7z"
   id="path270" />
	<path
   class="st0"
   d="M117.7,12.9c0.4,0.5,0.6,1.1,0.5,1.8l-0.5,3.5h-1.5l0-0.5c-0.5,0.4-1,0.6-1.7,0.6c-0.6,0-1.1-0.2-1.5-0.6   c-0.4-0.4-0.5-0.8-0.4-1.3l0-0.2c0.1-0.5,0.3-1,0.8-1.3c0.5-0.4,1-0.5,1.6-0.5c0.7,0,1.2,0.2,1.5,0.5l0.1-0.4   c0.1-0.4,0-0.7-0.3-0.9c-0.2-0.1-0.4-0.2-0.7-0.2h-0.1c-0.6,0-1.2,0.2-1.8,0.6c-0.1-0.2-0.1-0.5-0.2-0.7l-0.1-0.6   c0.4-0.2,0.8-0.3,1.1-0.4c0.4-0.1,0.9-0.2,1.3-0.2C116.7,12.2,117.3,12.4,117.7,12.9z M115.4,17.1c0.7,0,1-0.3,1.1-0.8   c0.1-0.5-0.2-0.8-0.9-0.8h-0.2c-0.7,0-1,0.3-1.1,0.8c-0.1,0.5,0.2,0.8,0.9,0.8H115.4z"
   id="path272" />
	<path
   class="st0"
   d="M119.9,12.5l1.7-0.2l-0.2,1.1c0.2-0.3,0.4-0.6,0.7-0.8c0.3-0.2,0.7-0.3,1-0.3c0.2,0,0.4,0,0.5,0.1l-0.4,1.5   c-0.1-0.1-0.3-0.1-0.5-0.1c0,0-0.1,0-0.1,0c-0.9,0.1-1.3,0.6-1.5,1.4l-0.4,3h-1.6L119.9,12.5z"
   id="path274" />
	<path
   class="st0"
   d="M128.2,17.5c-0.7,0.5-1.4,0.7-2.1,0.7h0c-0.8,0-1.4-0.2-1.9-0.7c-0.5-0.5-0.7-1.1-0.6-1.9l0.1-0.8   c0.1-0.8,0.5-1.4,1.1-1.9c0.6-0.5,1.3-0.7,2.1-0.7h0c0.8,0,1.4,0.2,1.9,0.6l-0.7,1.3c-0.2-0.2-0.4-0.3-0.6-0.4   c-0.3-0.1-0.5-0.2-0.7-0.2c-0.4,0-0.7,0.1-0.9,0.4c-0.3,0.2-0.4,0.6-0.5,1l-0.1,0.7c-0.1,0.5,0,0.8,0.2,1c0.2,0.2,0.5,0.3,0.9,0.3   c0.3,0,0.6-0.1,0.9-0.2c0.3-0.1,0.5-0.3,0.7-0.5L128.2,17.5z"
   id="path276" />
	<path
   class="st0"
   d="M134.7,12.9c0.3,0.4,0.5,0.8,0.4,1.4l-0.5,4H133l0.5-3.4c0-0.3,0-0.6-0.2-0.8c-0.2-0.2-0.4-0.3-0.7-0.3   c-0.3,0-0.6,0.1-0.8,0.3c-0.2,0.2-0.4,0.5-0.4,0.8l-0.5,3.5h-1.6l1.1-8.1l1.7-0.2l-0.4,3.2c0.4-0.5,1.1-0.8,1.9-0.8   C133.9,12.3,134.4,12.5,134.7,12.9z"
   id="path278" />
	<path
   class="st0"
   d="M85.3,28.8l1.1-8.3h1.7L87,28.8H85.3z"
   id="path280" />
	<path
   class="st0"
   d="M94.4,23.4c0.3,0.4,0.5,0.8,0.4,1.4l-0.5,4h-1.6l0.5-3.4c0-0.3,0-0.6-0.2-0.8c-0.2-0.2-0.4-0.3-0.7-0.3   c-0.3,0-0.6,0.1-0.8,0.3c-0.2,0.2-0.4,0.5-0.4,0.8l-0.5,3.4h-1.6l0.8-5.7l1.7-0.2l-0.1,0.9c0.4-0.6,1.1-0.8,1.9-0.8   C93.6,22.8,94.1,23,94.4,23.4z"
   id="path282" />
	<path
   class="st0"
   d="M96.2,26.8c0.4,0.2,0.7,0.4,1,0.6c0.3,0.1,0.7,0.2,1,0.3c0.1,0,0.1,0,0.2,0c0.4,0,0.6-0.1,0.7-0.4   c0,0,0-0.1,0-0.1c0-0.2-0.1-0.4-0.5-0.5l-0.7-0.2c-0.3-0.1-0.5-0.1-0.6-0.2c-0.5-0.2-0.8-0.4-0.9-0.8c-0.1-0.2-0.2-0.5-0.1-0.9   c0-0.1,0.1-0.3,0.1-0.4c0.2-0.5,0.5-0.8,0.9-1c0.4-0.2,0.9-0.3,1.5-0.3c0.4,0,0.8,0.1,1.2,0.2c0.3,0.1,0.7,0.2,1,0.4l-0.4,1.5   c-0.6-0.5-1.2-0.7-1.7-0.8c-0.1,0-0.2,0-0.3,0c-0.1,0-0.2,0-0.3,0c-0.2,0.1-0.4,0.2-0.4,0.3c0,0.1-0.1,0.1-0.1,0.2   c0,0.2,0.1,0.4,0.5,0.5c0.2,0.1,0.4,0.1,0.7,0.2l0.7,0.2c0.7,0.2,1,0.7,0.9,1.5c0,0.1,0,0.1,0,0.2c-0.1,0.6-0.4,1-0.9,1.3   c-0.4,0.2-0.9,0.4-1.6,0.4h0c-0.3,0-0.6,0-0.9-0.1c-0.3-0.1-0.5-0.1-0.7-0.2c-0.2-0.1-0.3-0.1-0.5-0.2c-0.1-0.1-0.2-0.1-0.2-0.1   L96.2,26.8z"
   id="path284" />
	<path
   class="st0"
   d="M105.1,28.5c0,0-0.1,0.1-0.2,0.1c-0.1,0.1-0.3,0.1-0.4,0.1c-0.2,0.1-0.5,0.1-0.7,0.1c-0.1,0-0.3,0-0.4,0   c-0.5-0.1-0.8-0.3-1-0.6c-0.2-0.3-0.3-0.9-0.2-1.5l0.4-2.7h-1l0.2-1.1h1l0.2-1.7l1.7-0.2l-0.3,1.9h1.8l-0.2,1.1h-1.8l-0.3,2.4   c-0.1,0.7,0,1,0.3,1.1c0.1,0,0.2,0,0.3,0c0.1,0,0.2,0,0.4-0.1c0.2-0.1,0.4-0.1,0.6-0.3l-0.2,1.3L105.1,28.5z"
   id="path286" />
	<path
   class="st0"
   d="M106.5,28.8l0.8-5.8l1.7-0.2l-0.8,6H106.5z M108.3,22c-0.6,0-0.9-0.3-0.8-0.9c0.1-0.6,0.4-0.9,1-0.9h0.1   c0.6,0,0.9,0.3,0.8,0.9C109.3,21.7,108.9,22,108.3,22L108.3,22z"
   id="path288" />
	<path
   class="st0"
   d="M113.4,28.5c0,0-0.1,0.1-0.2,0.1c-0.1,0.1-0.3,0.1-0.4,0.1c-0.2,0.1-0.5,0.1-0.7,0.1c-0.1,0-0.3,0-0.4,0   c-0.5-0.1-0.8-0.3-1-0.6c-0.2-0.3-0.3-0.9-0.2-1.5l0.4-2.7h-1l0.2-1.1h1l0.2-1.7l1.7-0.2l-0.3,1.9h1.8l-0.2,1.1h-1.8l-0.3,2.4   c-0.1,0.7,0,1,0.3,1.1c0.1,0,0.2,0,0.3,0c0.1,0,0.2,0,0.4-0.1c0.2-0.1,0.4-0.1,0.6-0.3l-0.2,1.3L113.4,28.5z"
   id="path290" />
	<path
   class="st0"
   d="M115.4,28.2c-0.3-0.4-0.5-0.8-0.4-1.4l0.5-4h1.6l-0.5,3.4c0,0.3,0,0.6,0.2,0.8c0.2,0.2,0.4,0.3,0.7,0.3   c0.3,0,0.6-0.1,0.8-0.3c0.2-0.2,0.4-0.5,0.4-0.8l0.5-3.4h1.6l-0.8,5.9h-1.6l0-0.9c-0.5,0.6-1.1,0.9-1.9,0.9   C116.2,28.8,115.7,28.6,115.4,28.2z"
   id="path292" />
	<path
   class="st0"
   d="M125.1,28.5c0,0-0.1,0.1-0.2,0.1c-0.1,0.1-0.3,0.1-0.4,0.1c-0.2,0.1-0.5,0.1-0.7,0.1c-0.1,0-0.3,0-0.4,0   c-0.5-0.1-0.8-0.3-1-0.6c-0.2-0.3-0.3-0.9-0.2-1.5l0.4-2.7h-1l0.2-1.1h1l0.2-1.7l1.7-0.2l-0.3,1.9h1.8l-0.2,1.1h-1.8l-0.3,2.4   c-0.1,0.7,0,1,0.3,1.1c0.1,0,0.2,0,0.3,0c0.1,0,0.2,0,0.4-0.1c0.2-0.1,0.4-0.1,0.6-0.3l-0.2,1.3L125.1,28.5z"
   id="path294" />
	<path
   class="st0"
   d="M127,28.1c-0.5-0.5-0.7-1.2-0.6-2l0.1-0.5c0.1-0.8,0.5-1.5,1-2c0.6-0.6,1.3-0.8,2.2-0.8c0.7,0,1.3,0.2,1.7,0.5   c0.4,0.4,0.6,0.9,0.5,1.5c-0.1,0.5-0.3,0.8-0.7,1.1c-0.4,0.3-1,0.5-1.6,0.5h-1.7c0,0.4,0,0.6,0.3,0.8c0.2,0.2,0.4,0.3,0.8,0.3   c0.1,0,0.1,0,0.2,0c0.4,0,0.8-0.1,1.2-0.3c0.4-0.2,0.7-0.4,1-0.6l-0.2,1.2c0,0.1,0,0.2-0.1,0.3c-0.3,0.2-0.6,0.3-1,0.4   c-0.5,0.1-0.9,0.2-1.4,0.2C128.1,28.8,127.5,28.6,127,28.1z M128.2,25.3h1.5c0.5,0,0.8-0.2,0.9-0.6c0.1-0.4-0.2-0.6-0.8-0.6   c-0.4,0-0.7,0.1-1,0.3c-0.3,0.2-0.5,0.5-0.5,0.8L128.2,25.3z"
   id="path296" />
	<path
   class="st1"
   d="M41.9,30.4c-9.5-2.2-32,1.2-32,1.2c-2,0.4-3.6,0.5-4.8,0.5c-1.2,2.5,1.3,3.5,7.1,2.3c0,0,22.4-3.7,31.9-1.7   c1.3,0.3,2.5,0.7,3.4,1.2C46.5,32.3,44.7,31,41.9,30.4z"
   id="path298" />
	<path
   class="st2"
   d="M51.9,44.3c0,0,1.4-7.2-4.3-10.5c2.8,3.6,1.8,8.5,1.8,8.5c-0.8,3.1,0.4,4,2.3,3.6   C51.7,45.5,51.8,44.9,51.9,44.3z"
   id="path300" />
	<path
   class="st1"
   d="M74.4,27.9h-0.1c-1.2,0-2-0.2-2.7-0.6c-3.3,4.5-7.5,9.5-12.8,14.3c-2.5,2.3-5.2,3.9-7.1,4.3   c0,4,5.2,1.7,9.6-2.5c5.6-5.2,9.9-10.7,13.2-15.5C74.5,27.9,74.5,27.9,74.4,27.9C74.4,27.9,74.4,27.9,74.4,27.9z"
   id="path302" />
	<path
   class="st1"
   d="M81.8,2.3c1.3,1.9,1,4.9-0.8,9c0,0-2.5,6.1-8,14c0.3,0.3,0.9,0.5,1.9,0.5c0.4,0,0.8-0.1,1.2-0.2   c4.8-7.4,6.9-12.9,6.9-12.9C85.3,7.3,85,3.8,81.8,2.3z"
   id="path304" />
	<path
   class="st2"
   d="M27.9,17.1C45.5,9.2,65.6,3.5,65.6,3.5c8-2.1,13.3-2.5,16.2-1.2c-2-2.9-7.8-3.1-18-0.6c0,0-18.4,4.8-35.4,11.8   h0L27.9,17.1z"
   id="path306" />
	<path
   class="st2"
   d="M9.5,27.5c4.2-3.3,9.9-6.4,16.1-9.3l0.5-3.6C18.8,17.7,12,21.1,7.2,24.8c-5.6,4.2-6.1,7-2.1,7.3   C5.7,30.9,7.1,29.3,9.5,27.5z"
   id="path308" />
	<path
   class="st0"
   d="M71.6,27.3c-1.1-0.7-1.4-1.9-1.1-3.7l2.5-15h2.2l-2.5,15c-0.1,0.9-0.1,1.4,0.3,1.8c5.5-8,8-14,8-14   c1.8-4.1,2.2-7.1,0.8-9c-2.9-1.3-8.2-1-16.2,1.2c0,0-20.2,5.7-37.7,13.6l-0.6,3.8c-0.4,2.7,1.3,4.9,4,4.9c2.6,0,5.1-2.2,5.6-4.9   l1.1-7.3h2.2l-1.1,7.3c-0.4,2.7,1.3,4.9,4,4.9c2.6,0,5.1-2.2,5.6-4.9l1.1-7.3h2.2L51,20.9c-0.7,3.9-4.3,7.2-8.2,7.2   c-2.5,0-4.4-1.3-5.3-3.3c-1.6,2-4,3.3-6.4,3.3c-3.8,0-6.5-3.2-5.8-7.2l0.4-2.7c-6.2,2.9-11.9,6.1-16.1,9.3   c-2.3,1.8-3.7,3.3-4.3,4.5c1.2,0.1,2.8-0.1,4.8-0.5c0,0,22.4-3.3,32-1.2c2.8,0.6,4.6,1.9,5.7,3.4c5.7,3.3,4.3,10.5,4.3,10.5   c-0.1,0.6-0.2,1.2-0.2,1.6c1.9-0.4,4.6-2.1,7.1-4.3C64.1,36.8,68.3,31.8,71.6,27.3z"
   id="path310" />
	<g
   id="g318">
		<path
   class="st3"
   d="M48.7,20.9c-0.4,2.7-3,4.9-5.6,4.9c-2.6,0-4.4-2.2-4-4.9l1.1-7.3H38l-1.1,7.3c-0.4,2.7-3,4.9-5.6,4.9    c-2.6,0-4.4-2.2-4-4.9l0.6-3.8l0.5-3.5h0c-0.8,0.3-1.6,0.7-2.4,1l-0.5,3.6l-0.4,2.7c-0.7,3.9,2,7.2,5.8,7.2c2.5,0,4.9-1.3,6.4-3.3    c0.9,2,2.9,3.3,5.3,3.3c3.8,0,7.5-3.2,8.2-7.2l1.1-7.3h-2.2L48.7,20.9z"
   id="path312" />
		<path
   class="st3"
   d="M74.8,25.9c-0.9,0-1.5-0.2-1.9-0.5c-0.4-0.4-0.4-0.9-0.3-1.8l2.5-15h-2.2l-2.5,15c-0.3,1.8,0.1,3.1,1.1,3.7    c0.6,0.4,1.5,0.6,2.7,0.6h0.1c0,0,0,0,0.1,0c0,0,0.1,0,0.1,0c0.5-0.8,1-1.5,1.5-2.2C75.6,25.8,75.2,25.9,74.8,25.9z"
   id="path314" />
		<path
   class="st3"
   d="M62.2,12.7c-4.4,0-8.6,3.5-9.3,7.7c-0.7,4.2,2.2,7.7,6.8,7.7l0.4-2.3c-2.8-0.1-4.8-1.8-4.9-4.3h13.4l0.2-1.1    C69.5,16.2,66.6,12.7,62.2,12.7z M55.6,19.3c1-2.5,3.6-4.3,6.2-4.3c2.6,0,4.6,1.8,4.7,4.3H55.6z"
   id="path316" />
	</g>
</g>
</svg>
